<svg width="48" height="48" viewBox="0 0 48 48" fill="none" xmlns="http://www.w3.org/2000/svg">
    <circle cx="24" cy="24" r="23.5" stroke="#E50500" stroke-dasharray="5 5"/>
    <g clip-path="url(#clip0_3814_8365)">
        <path d="M25.3333 30.6666L22.6666 30.6666L22.6666 27.9999L25.3333 27.9999L25.3333 30.6666ZM25.3333 25.3333L22.6666 25.3333L22.6666 17.3333L25.3333 17.3333L25.3333 25.3333ZM23.9999 37.3333C31.3599 37.3333 37.3333 31.3599 37.3333 23.9999C37.3333 16.6399 31.3599 10.6666 23.9999 10.6666C16.6399 10.6666 10.6666 16.6399 10.6666 23.9999C10.6666 31.3599 16.6399 37.3333 23.9999 37.3333ZM23.9999 13.3333C29.8799 13.3333 34.6666 18.1199 34.6666 23.9999C34.6666 29.8799 29.8799 34.6666 23.9999 34.6666C18.1199 34.6666 13.3333 29.8799 13.3333 23.9999C13.3333 18.1199 18.1199 13.3332 23.9999 13.3333Z" fill="#E50500"/>
    </g>
    <defs>
        <clipPath id="clip0_3814_8365">
            <rect width="32" height="32" fill="white" transform="translate(40 40) rotate(-180)"/>
        </clipPath>
    </defs>
</svg>