<svg width="64" height="64" viewBox="0 0 64 64" fill="none" xmlns="http://www.w3.org/2000/svg">
    <circle cx="32" cy="32" r="32" fill="#F4F4F4"/>
    <path d="M32 26C33.1 26 34 26.9 34 28C34 29.1 33.1 30 32 30C30.9 30 30 29.1 30 28C30 26.9 30.9 26 32 26ZM32 35C34.7 35 37.8 36.29 38 37V38H26V37.01C26.2 36.29 29.3 35 32 35ZM32 24C29.79 24 28 25.79 28 28C28 30.21 29.79 32 32 32C34.21 32 36 30.21 36 28C36 25.79 34.21 24 32 24ZM32 33C29.33 33 24 34.34 24 37V40H40V37C40 34.34 34.67 33 32 33Z" fill="#323232"/>
</svg>