<svg width="48" height="48" viewBox="0 0 48 48" fill="none" xmlns="http://www.w3.org/2000/svg">
    <circle cx="24" cy="24" r="23.5" stroke="#08B7DD" stroke-dasharray="5 5"/>
    <path d="M29.8102 16.47C29.7302 16.47 29.6502 16.45 29.5802 16.41C27.6602 15.42 26.0002 15 24.0102 15C22.0302 15 20.1502 15.47 18.4402 16.41C18.2002 16.54 17.9002 16.45 17.7602 16.21C17.6302 15.97 17.7202 15.66 17.9602 15.53C19.8202 14.52 21.8602 14 24.0102 14C26.1402 14 28.0002 14.47 30.0402 15.52C30.2902 15.65 30.3802 15.95 30.2502 16.19C30.1602 16.37 29.9902 16.47 29.8102 16.47ZM15.5002 21.72C15.4002 21.72 15.3002 21.69 15.2102 21.63C14.9802 21.47 14.9302 21.16 15.0902 20.93C16.0802 19.53 17.3402 18.43 18.8402 17.66C21.9802 16.04 26.0002 16.03 29.1502 17.65C30.6502 18.42 31.9102 19.51 32.9002 20.9C33.0602 21.12 33.0102 21.44 32.7802 21.6C32.5502 21.76 32.2402 21.71 32.0802 21.48C31.1802 20.22 30.0402 19.23 28.6902 18.54C25.8202 17.07 22.1502 17.07 19.2902 18.55C17.9302 19.25 16.7902 20.25 15.8902 21.51C15.8102 21.65 15.6602 21.72 15.5002 21.72ZM21.7502 33.79C21.6202 33.79 21.4902 33.74 21.4002 33.64C20.5302 32.77 20.0602 32.21 19.3902 31C18.7002 29.77 18.3402 28.27 18.3402 26.66C18.3402 23.69 20.8802 21.27 24.0002 21.27C27.1202 21.27 29.6602 23.69 29.6602 26.66C29.6602 26.94 29.4402 27.16 29.1602 27.16C28.8802 27.16 28.6602 26.94 28.6602 26.66C28.6602 24.24 26.5702 22.27 24.0002 22.27C21.4302 22.27 19.3402 24.24 19.3402 26.66C19.3402 28.1 19.6602 29.43 20.2702 30.51C20.9102 31.66 21.3502 32.15 22.1202 32.93C22.3102 33.13 22.3102 33.44 22.1202 33.64C22.0102 33.74 21.8802 33.79 21.7502 33.79ZM28.9202 31.94C27.7302 31.94 26.6802 31.64 25.8202 31.05C24.3302 30.04 23.4402 28.4 23.4402 26.66C23.4402 26.38 23.6602 26.16 23.9402 26.16C24.2202 26.16 24.4402 26.38 24.4402 26.66C24.4402 28.07 25.1602 29.4 26.3802 30.22C27.0902 30.7 27.9202 30.93 28.9202 30.93C29.1602 30.93 29.5602 30.9 29.9602 30.83C30.2302 30.78 30.4902 30.96 30.5402 31.24C30.5902 31.51 30.4102 31.77 30.1302 31.82C29.5602 31.93 29.0602 31.94 28.9202 31.94ZM26.9102 34C26.8702 34 26.8202 33.99 26.7802 33.98C25.1902 33.54 24.1502 32.95 23.0602 31.88C21.6602 30.49 20.8902 28.64 20.8902 26.66C20.8902 25.04 22.2702 23.72 23.9702 23.72C25.6702 23.72 27.0502 25.04 27.0502 26.66C27.0502 27.73 27.9802 28.6 29.1302 28.6C30.2802 28.6 31.2102 27.73 31.2102 26.66C31.2102 22.89 27.9602 19.83 23.9602 19.83C21.1202 19.83 18.5202 21.41 17.3502 23.86C16.9602 24.67 16.7602 25.62 16.7602 26.66C16.7602 27.44 16.8302 28.67 17.4302 30.27C17.5302 30.53 17.4002 30.82 17.1402 30.91C16.8802 31.01 16.5902 30.87 16.5002 30.62C16.0102 29.31 15.7702 28.01 15.7702 26.66C15.7702 25.46 16.0002 24.37 16.4502 23.42C17.7802 20.63 20.7302 18.82 23.9602 18.82C28.5102 18.82 32.2102 22.33 32.2102 26.65C32.2102 28.27 30.8302 29.59 29.1302 29.59C27.4302 29.59 26.0502 28.27 26.0502 26.65C26.0502 25.58 25.1202 24.71 23.9702 24.71C22.8202 24.71 21.8902 25.58 21.8902 26.65C21.8902 28.36 22.5502 29.96 23.7602 31.16C24.7102 32.1 25.6202 32.62 27.0302 33.01C27.3002 33.08 27.4502 33.36 27.3802 33.62C27.3302 33.85 27.1202 34 26.9102 34Z" fill="#08B7DD"/>
</svg>
