<svg width="48" height="48" viewBox="0 0 48 48" fill="none" xmlns="http://www.w3.org/2000/svg">
    <circle cx="24" cy="24" r="23.5" stroke="#08B7DD" stroke-dasharray="5 5"/>
    <path d="M13.2343 18.5829V15.9086C13.2343 14.398 14.398 13.2343 15.9086 13.2343H18.5829C18.9237 13.2343 19.2 12.958 19.2 12.6171C19.2 12.2763 18.9237 12 18.5829 12H15.9086C13.7163 12 12 13.7163 12 15.9086V18.5829C12 18.9237 12.2763 19.2 12.6171 19.2C12.958 19.2 13.2343 18.9237 13.2343 18.5829Z" fill="#08B7DD"/>
    <path d="M34.7657 18.5829V15.9086C34.7657 14.398 33.602 13.2343 32.0914 13.2343H29.4171C29.0763 13.2343 28.8 12.958 28.8 12.6171C28.8 12.2763 29.0763 12 29.4171 12H32.0914C34.2837 12 36 13.7163 36 15.9086V18.5829C36 18.9237 35.7237 19.2 35.3829 19.2C35.042 19.2 34.7657 18.9237 34.7657 18.5829Z" fill="#08B7DD"/>
    <path d="M13.2343 29.4171V32.0914C13.2343 33.602 14.398 34.7657 15.9086 34.7657H18.5829C18.9237 34.7657 19.2 35.042 19.2 35.3829C19.2 35.7237 18.9237 36 18.5829 36H15.9086C13.7163 36 12 34.2837 12 32.0914V29.4171C12 29.0763 12.2763 28.8 12.6171 28.8C12.958 28.8 13.2343 29.0763 13.2343 29.4171Z" fill="#08B7DD"/>
    <path d="M34.7657 29.4171V32.0914C34.7657 33.602 33.602 34.7657 32.0914 34.7657H29.4171C29.0763 34.7657 28.8 35.042 28.8 35.3829C28.8 35.7237 29.0763 36 29.4171 36H32.0914C34.2837 36 36 34.2837 36 32.0914V29.4171C36 29.0763 35.7237 28.8 35.3829 28.8C35.042 28.8 34.7657 29.0763 34.7657 29.4171Z" fill="#08B7DD"/>
    <path d="M18.5264 21.0639V22.7792C18.5264 23.1342 18.795 23.422 19.1264 23.422C19.4577 23.422 19.7264 23.1342 19.7264 22.7792V21.0639C19.7264 20.7089 19.4577 20.4211 19.1264 20.4211C18.795 20.4211 18.5264 20.7089 18.5264 21.0639Z" fill="#08B7DD"/>
    <path d="M28.4209 21.0639V22.7792C28.4209 23.1342 28.6895 23.422 29.0209 23.422C29.3523 23.422 29.6209 23.1342 29.6209 22.7792V21.0639C29.6209 20.7089 29.3523 20.4211 29.0209 20.4211C28.6895 20.4211 28.4209 20.7089 28.4209 21.0639Z" fill="#08B7DD"/>
    <path d="M19.7797 29.7249C20.9501 30.8172 22.3675 31.3684 24.0002 31.3684C25.6328 31.3684 27.0502 30.8172 28.2206 29.7249C28.4756 29.4869 28.4894 29.0872 28.2514 28.8322C28.0133 28.5772 27.6137 28.5634 27.3587 28.8014C26.4238 29.674 25.3149 30.1053 24.0002 30.1053C22.6854 30.1053 21.5765 29.674 20.6416 28.8014C20.3866 28.5634 19.987 28.5772 19.749 28.8322C19.511 29.0872 19.5247 29.4869 19.7797 29.7249Z" fill="#08B7DD"/>
    <path d="M24.0001 21.0526V25.4737C24.0001 25.7566 23.8618 25.8947 23.5774 25.8947H23.1579C22.8091 25.8947 22.5264 26.1775 22.5264 26.5263C22.5264 26.8751 22.8091 27.1579 23.1579 27.1579H23.5774C24.5591 27.1579 25.2632 26.4546 25.2632 25.4737V21.0526C25.2632 20.7038 24.9804 20.4211 24.6316 20.4211C24.2828 20.4211 24.0001 20.7038 24.0001 21.0526Z" fill="#08B7DD"/>
</svg>
