<svg width="97" height="62" viewBox="0 0 97 62" fill="none" xmlns="http://www.w3.org/2000/svg">
    <path d="M48.5 61.9998C75.2858 61.9998 97 57.2606 97 51.4145C97 45.5683 75.2858 40.8291 48.5 40.8291C21.7142 40.8291 0 45.5683 0 51.4145C0 57.2606 21.7142 61.9998 48.5 61.9998Z" fill="#F5F5F5"/>
    <path d="M83.3594 20.8087L67.9823 3.41364C67.2444 2.22873 66.1659 1.51221 65.0306 1.51221H31.9694C30.8341 1.51221 29.7556 2.22891 29.0177 3.41364L13.6406 20.8087L13.6406 34.7805H83.3594V20.8087Z" stroke="#A8B1BD"/>
    <path d="M63.0701 25.6039C63.0701 23.1758 64.5762 21.1713 66.4445 21.1709H83.3594V48.5978C83.3594 51.8064 81.3578 54.4392 78.8889 54.4392H18.1111C15.642 54.4392 13.6406 51.8062 13.6406 48.5978V21.1709H30.5555C32.4238 21.1709 33.9299 23.1712 33.9299 25.5993V25.6313C33.9299 28.0594 35.4531 30.019 37.3214 30.019H59.6786C61.5469 30.019 63.0701 28.0413 63.0701 25.6133V25.6039Z" fill="#C5CED9" stroke="#A8B1BD"/>
</svg>