<svg width="24" height="24" viewBox="0 0 24 24" fill="none" xmlns="http://www.w3.org/2000/svg">
    <path fill-rule="evenodd" clip-rule="evenodd" d="M1 6C1 3.23857 3.23858 1 6 1H7.2381C7.79038 1 8.2381 1.44772 8.2381 2C8.2381 2.55228 7.79038 3 7.2381 3H6C4.34314 3 3 4.34314 3 6V7.2381C3 7.79038 2.55228 8.2381 2 8.2381C1.44772 8.2381 1 7.79038 1 7.2381V6ZM1 18C1 20.7614 3.23858 23 6 23H7.2381C7.79038 23 8.2381 22.5523 8.2381 22C8.2381 21.4477 7.79038 21 7.2381 21H6C4.34314 21 3 19.6569 3 18V16.7619C3 16.2096 2.55228 15.7619 2 15.7619C1.44772 15.7619 1 16.2096 1 16.7619V18ZM23 6C23 3.23857 20.7614 1 18 1H16.7619C16.2096 1 15.7619 1.44772 15.7619 2C15.7619 2.55228 16.2096 3 16.7619 3H18C19.6569 3 21 4.34314 21 6V7.2381C21 7.79038 21.4477 8.2381 22 8.2381C22.5523 8.2381 23 7.79038 23 7.2381V6ZM23 18C23 20.7614 20.7614 23 18 23H16.7619C16.2096 23 15.7619 22.5523 15.7619 22C15.7619 21.4477 16.2096 21 16.7619 21H18C19.6569 21 21 19.6569 21 18V16.7619C21 16.2096 21.4477 15.7619 22 15.7619C22.5523 15.7619 23 16.2096 23 16.7619V18ZM15.9142 14.1862C16.3637 14.5072 16.4677 15.1318 16.1467 15.5812L15.333 15C16.1467 15.5812 16.1465 15.5816 16.1462 15.582L16.1456 15.5828L16.1444 15.5845L16.1415 15.5885L16.1344 15.5982L16.1145 15.6247C16.0987 15.6454 16.0778 15.6721 16.0519 15.7039C16 15.7675 15.9274 15.8519 15.8339 15.95C15.6476 16.1457 15.3746 16.3998 15.0136 16.6525C14.2879 17.1605 13.1988 17.6666 11.7616 17.6666C10.522 17.6666 9.48769 17.1289 8.80716 16.6525C8.45957 16.4092 8.18249 16.1668 7.99074 15.9837C7.89439 15.8918 7.81828 15.8135 7.76427 15.756C7.73723 15.7272 7.71563 15.7035 7.69969 15.6857L7.68004 15.6635L7.67342 15.6559L7.67093 15.653L7.66989 15.6518L7.66942 15.6513C7.6692 15.651 7.66898 15.6507 8.42824 15L7.66898 15.6507C7.30956 15.2314 7.35812 14.6001 7.77745 14.2407C8.19576 13.8821 8.82503 13.9296 9.18489 14.3461L9.18514 14.3464L9.18981 14.3517C9.19573 14.3583 9.20667 14.3704 9.22242 14.3871C9.25397 14.4207 9.30435 14.4727 9.37169 14.537C9.50733 14.6665 9.70643 14.8407 9.95408 15.0141C10.464 15.371 11.0964 15.6666 11.7616 15.6666C12.7053 15.6666 13.4019 15.3394 13.8667 15.0141C14.1009 14.8501 14.2744 14.6876 14.3857 14.5707C14.441 14.5126 14.48 14.4668 14.5025 14.4392C14.5138 14.4254 14.5208 14.4163 14.5236 14.4126C14.5239 14.4123 14.5241 14.412 14.5243 14.4117C14.5243 14.4117 14.5243 14.4117 14.5243 14.4117C14.8468 13.9682 15.4672 13.8669 15.9142 14.1862ZM8 7C8.55228 7 9 7.44772 9 8V9.09524C9 9.64752 8.55228 10.0952 8 10.0952C7.44772 10.0952 7 9.64752 7 9.09524V8C7 7.44772 7.44772 7 8 7ZM16.333 7C16.8853 7 17.333 7.44772 17.333 8V9.09524C17.333 9.64752 16.8853 10.0952 16.333 10.0952C15.7807 10.0952 15.333 9.64752 15.333 9.09524V8C15.333 7.44772 15.7807 7 16.333 7ZM12.0003 6.71436C12.5526 6.71436 13.0003 7.16207 13.0003 7.71436V11.5239C13.0003 12.2053 12.7413 12.8166 12.206 13.226C11.714 13.6022 11.1098 13.7144 10.5718 13.7144C10.0195 13.7144 9.57178 13.2666 9.57178 12.7144C9.57178 12.1621 10.0195 11.7144 10.5718 11.7144C10.8471 11.7144 10.9614 11.6567 10.9869 11.6402C10.9912 11.6273 11.0003 11.592 11.0003 11.5239V7.71436C11.0003 7.16207 11.4481 6.71436 12.0003 6.71436Z" fill="#222D4B"/>
    <mask id="mask0_1832_3143" style="mask-type:alpha" maskUnits="userSpaceOnUse" x="1" y="1" width="22" height="22">
        <path fill-rule="evenodd" clip-rule="evenodd" d="M1 6C1 3.23857 3.23858 1 6 1H7.2381C7.79038 1 8.2381 1.44772 8.2381 2C8.2381 2.55228 7.79038 3 7.2381 3H6C4.34314 3 3 4.34314 3 6V7.2381C3 7.79038 2.55228 8.2381 2 8.2381C1.44772 8.2381 1 7.79038 1 7.2381V6ZM1 18C1 20.7614 3.23858 23 6 23H7.2381C7.79038 23 8.2381 22.5523 8.2381 22C8.2381 21.4477 7.79038 21 7.2381 21H6C4.34314 21 3 19.6569 3 18V16.7619C3 16.2096 2.55228 15.7619 2 15.7619C1.44772 15.7619 1 16.2096 1 16.7619V18ZM23 6C23 3.23857 20.7614 1 18 1H16.7619C16.2096 1 15.7619 1.44772 15.7619 2C15.7619 2.55228 16.2096 3 16.7619 3H18C19.6569 3 21 4.34314 21 6V7.2381C21 7.79038 21.4477 8.2381 22 8.2381C22.5523 8.2381 23 7.79038 23 7.2381V6ZM23 18C23 20.7614 20.7614 23 18 23H16.7619C16.2096 23 15.7619 22.5523 15.7619 22C15.7619 21.4477 16.2096 21 16.7619 21H18C19.6569 21 21 19.6569 21 18V16.7619C21 16.2096 21.4477 15.7619 22 15.7619C22.5523 15.7619 23 16.2096 23 16.7619V18ZM15.9142 14.1862C16.3637 14.5072 16.4677 15.1318 16.1467 15.5812L15.333 15C16.1467 15.5812 16.1465 15.5816 16.1462 15.582L16.1456 15.5828L16.1444 15.5845L16.1415 15.5885L16.1344 15.5982L16.1145 15.6247C16.0987 15.6454 16.0778 15.6721 16.0519 15.7039C16 15.7675 15.9274 15.8519 15.8339 15.95C15.6476 16.1457 15.3746 16.3998 15.0136 16.6525C14.2879 17.1605 13.1988 17.6666 11.7616 17.6666C10.522 17.6666 9.48769 17.1289 8.80716 16.6525C8.45957 16.4092 8.18249 16.1668 7.99074 15.9837C7.89439 15.8918 7.81828 15.8135 7.76427 15.756C7.73723 15.7272 7.71563 15.7035 7.69969 15.6857L7.68004 15.6635L7.67342 15.6559L7.67093 15.653L7.66989 15.6518L7.66942 15.6513C7.6692 15.651 7.66898 15.6507 8.42824 15L7.66898 15.6507C7.30956 15.2314 7.35812 14.6001 7.77745 14.2407C8.19576 13.8821 8.82503 13.9296 9.18489 14.3461L9.18514 14.3464L9.18981 14.3517C9.19573 14.3583 9.20667 14.3704 9.22242 14.3871C9.25397 14.4207 9.30435 14.4727 9.37169 14.537C9.50733 14.6665 9.70643 14.8407 9.95408 15.0141C10.464 15.371 11.0964 15.6666 11.7616 15.6666C12.7053 15.6666 13.4019 15.3394 13.8667 15.0141C14.1009 14.8501 14.2744 14.6876 14.3857 14.5707C14.441 14.5126 14.48 14.4668 14.5025 14.4392C14.5138 14.4254 14.5208 14.4163 14.5236 14.4126C14.5239 14.4123 14.5241 14.412 14.5243 14.4117C14.5243 14.4117 14.5243 14.4117 14.5243 14.4117C14.8468 13.9682 15.4672 13.8669 15.9142 14.1862ZM8 7C8.55228 7 9 7.44772 9 8V9.09524C9 9.64752 8.55228 10.0952 8 10.0952C7.44772 10.0952 7 9.64752 7 9.09524V8C7 7.44772 7.44772 7 8 7ZM16.333 7C16.8853 7 17.333 7.44772 17.333 8V9.09524C17.333 9.64752 16.8853 10.0952 16.333 10.0952C15.7807 10.0952 15.333 9.64752 15.333 9.09524V8C15.333 7.44772 15.7807 7 16.333 7ZM12.0003 6.71436C12.5526 6.71436 13.0003 7.16207 13.0003 7.71436V11.5239C13.0003 12.2053 12.7413 12.8166 12.206 13.226C11.714 13.6022 11.1098 13.7144 10.5718 13.7144C10.0195 13.7144 9.57178 13.2666 9.57178 12.7144C9.57178 12.1621 10.0195 11.7144 10.5718 11.7144C10.8471 11.7144 10.9614 11.6567 10.9869 11.6402C10.9912 11.6273 11.0003 11.592 11.0003 11.5239V7.71436C11.0003 7.16207 11.4481 6.71436 12.0003 6.71436Z" fill="white"/>
    </mask>
    <g mask="url(#mask0_1832_3143)">
        <rect width="24" height="24" fill="#222D4B"/>
    </g>
</svg>
