<svg width="48" height="48" viewBox="0 0 48 48" fill="none" xmlns="http://www.w3.org/2000/svg">
    <path fill-rule="evenodd" clip-rule="evenodd" d="M24 4C22.896 4 22 4.894 22 6V10C22 11.106 22.896 12 24 12C25.104 12 26 11.106 26 10V6C26 4.894 25.104 4 24 4" fill="#08B7DD"/>
    <path opacity="0.6" fill-rule="evenodd" clip-rule="evenodd" d="M42 22H38C36.896 22 36 22.894 36 24C36 25.106 36.896 26 38 26H42C43.104 26 44 25.106 44 24C44 22.894 43.104 22 42 22" fill="#08B7DD"/>
    <path opacity="0.6" fill-rule="evenodd" clip-rule="evenodd" d="M12 24C12 22.894 11.104 22 10 22H6C4.896 22 4 22.894 4 24C4 25.106 4.896 26 6 26H10C11.104 26 12 25.106 12 24" fill="#08B7DD"/>
    <path opacity="0.8" fill-rule="evenodd" clip-rule="evenodd" d="M12.4413 10.0564C11.6473 9.28844 10.3833 9.31444 9.61331 10.1064C8.84531 10.9004 8.86731 12.1684 9.66131 12.9344L12.5393 15.7144C12.9293 16.0904 13.4293 16.2744 13.9293 16.2744C14.4533 16.2744 14.9753 16.0704 15.3673 15.6644C16.1353 14.8704 16.1133 13.6024 15.3193 12.8364L12.4413 10.0564Z" fill="#08B7DD"/>
    <path opacity="0.2" fill-rule="evenodd" clip-rule="evenodd" d="M34.0704 16.2754C34.5704 16.2754 35.0704 16.0894 35.4604 15.7154L38.3384 12.9354C39.1324 12.1674 39.1544 10.8994 38.3864 10.1074C37.6204 9.31542 36.3564 9.28942 35.5584 10.0574L32.6804 12.8354C31.8864 13.6034 31.8644 14.8714 32.6324 15.6634C33.0244 16.0694 33.5464 16.2754 34.0704 16.2754" fill="#08B7DD"/>
    <path fill-rule="evenodd" clip-rule="evenodd" d="M24 36C22.896 36 22 36.894 22 38V42C22 43.106 22.896 44 24 44C25.104 44 26 43.106 26 42V38C26 36.894 25.104 36 24 36" fill="#08B7DD"/>
    <path opacity="0.8" fill-rule="evenodd" clip-rule="evenodd" d="M35.4601 32.2852C34.6661 31.5192 33.4001 31.5432 32.6321 32.3352C31.8641 33.1292 31.8861 34.3972 32.6801 35.1632L35.5581 37.9432C35.9481 38.3192 36.4481 38.5032 36.9481 38.5032C37.4721 38.5032 37.9941 38.2992 38.3861 37.8932C39.1541 37.0992 39.1321 35.8312 38.3381 35.0652L35.4601 32.2852Z" fill="#08B7DD"/>
    <path opacity="0.2" fill-rule="evenodd" clip-rule="evenodd" d="M12.54 32.2852L9.66205 35.0652C8.86805 35.8312 8.84605 37.0992 9.61405 37.8932C10.006 38.2992 10.528 38.5032 11.052 38.5032C11.552 38.5032 12.052 38.3192 12.442 37.9432L15.32 35.1632C16.114 34.3972 16.136 33.1292 15.368 32.3352C14.602 31.5432 13.336 31.5192 12.54 32.2852" fill="#08B7DD"/>
</svg>
