<svg width="298" height="48" viewBox="0 0 298 48" fill="none" xmlns="http://www.w3.org/2000/svg">
<path d="M143.95 14.7264C141.529 13.5982 138.659 14.6387 137.525 17.053C136.672 18.7599 135.076 19.9817 133.205 20.3617C131.06 20.7942 128.827 19.4614 127.775 18.7073C125.623 16.7373 122.285 16.8893 120.315 19.0405C118.351 21.1917 118.497 24.5296 120.649 26.4996C122.8 28.4696 126.138 28.3176 128.108 26.1664C128.47 25.7689 128.768 25.3246 128.996 24.8336C129.02 24.7868 129.043 24.7342 129.061 24.6816C129.359 24.2139 129.727 23.7989 130.16 23.454C131.072 22.8168 132.118 22.4076 133.217 22.2498C136.298 21.6068 139.559 23.3079 139.559 23.3079C139.653 23.3605 139.752 23.4131 139.858 23.4599C142.272 24.5881 145.142 23.5475 146.276 21.1333C147.41 18.719 146.364 15.8488 143.95 14.7147V14.7264Z" fill="#08B7DD"/>
<path d="M139.057 27.3764L139.086 27.4056H139.057C137.133 27.4056 135.456 28.6566 134.889 30.4629C134.9 30.422 134.906 30.3811 134.924 30.3402C133.766 31.9769 132.264 33.339 130.516 34.3269C130.154 34.4555 129.809 34.6309 129.493 34.853C122.683 37.9746 114.633 34.9816 111.512 28.1773C108.39 21.3671 111.383 13.3176 118.188 10.196C122.496 8.22017 127.517 8.64105 131.446 11.295L131.463 11.2716C131.586 11.3476 131.703 11.4294 131.831 11.4937C134.041 12.581 136.718 11.675 137.806 9.45945C138.682 7.68237 138.279 5.54285 136.824 4.2042L136.841 4.18081C136.777 4.13405 136.707 4.09313 136.642 4.04636C136.409 3.85346 136.163 3.68393 135.894 3.54364C125.559 -3.10873 111.781 -0.121595 105.128 10.2135C98.476 20.5487 101.463 34.3269 111.798 40.9793C122.028 47.5615 135.643 44.7146 142.377 34.59C142.406 34.5549 142.435 34.5257 142.465 34.4964C142.64 34.2275 142.81 33.9645 142.973 33.6897C143.265 33.0935 143.417 32.4446 143.417 31.784C143.417 31.7723 143.417 31.7665 143.417 31.7548C143.417 29.3464 141.459 27.3939 139.051 27.3939L139.057 27.3764Z" fill="#08B7DD"/>
<path d="M162.924 14.6387C162.802 14.6387 162.685 14.6387 162.562 14.6387C158.207 14.7615 154.77 18.3916 154.893 22.7466C154.893 27.7155 158.458 30.8896 163.176 30.8896C165.584 30.8896 168.028 30.1531 169.571 28.7443L167.771 26.1137C166.607 27.0841 165.146 27.6278 163.626 27.6512C160.99 27.6512 159.417 26.0144 159.16 24.0619H170.693V23.1617C170.693 18.0935 167.543 14.6329 162.919 14.6329L162.924 14.6387ZM159.101 21.3086C159.259 19.3269 160.937 17.8187 162.924 17.8772C162.924 17.8772 162.977 17.8772 163.006 17.8772C164.988 17.7895 166.666 19.3328 166.748 21.3145H159.101V21.3086Z" fill="#08B7DD"/>
<path d="M183.969 12.8148C186.091 12.8499 188.026 14.0424 189.014 15.9247L192.93 14.0015C191.183 10.6928 187.704 8.66441 183.969 8.77547C177.545 8.77547 172.564 13.2649 172.564 19.8355C172.564 26.406 177.545 30.8955 183.969 30.8955C188.692 30.8955 191.393 28.3 192.93 25.6402L189.014 23.7462C188.038 25.6344 186.097 26.8327 183.969 26.8561C180.082 26.8561 177.252 23.8748 177.252 19.8355C177.252 15.7961 180.082 12.8148 183.969 12.8148Z" fill="#08B7DD"/>
<path d="M202.605 14.6387C197.496 14.6387 194.415 18.3565 194.415 22.7525C194.415 27.1484 197.502 30.8955 202.605 30.8955C207.708 30.8955 210.83 27.1777 210.83 22.7525C210.83 18.3273 207.743 14.6387 202.605 14.6387ZM202.605 27.2712C200.068 27.2712 198.653 25.1901 198.653 22.7525C198.653 20.3148 200.068 18.263 202.605 18.263C205.142 18.263 206.592 20.3499 206.592 22.7525C206.592 25.1551 205.148 27.2712 202.605 27.2712Z" fill="#08B7DD"/>
<path d="M223.193 14.6445C221.118 14.6153 219.136 15.4922 217.763 17.0471V15.0245H213.682V30.5097H217.763V20.0927C218.587 18.9586 219.896 18.2806 221.293 18.263C223.03 18.263 224.152 18.9996 224.152 21.1508V30.5097H228.232V19.5783C228.232 16.5619 226.595 14.6387 223.187 14.6387L223.193 14.6445Z" fill="#08B7DD"/>
<path d="M238.456 27.2712C237.556 27.2712 237.042 26.5347 237.042 25.5701V18.5787H240.193V15.0187H237.042V10.7864H232.932V15.0187H230.36V18.5787H232.932V26.6574C232.932 29.4166 234.475 30.8897 237.334 30.8897C239.035 30.8897 240.128 30.4396 240.742 29.8959L239.877 26.8211C239.473 27.1251 238.971 27.2887 238.462 27.2712H238.456Z" fill="#08B7DD"/>
<path d="M246.903 17.1406V15.0245H242.823V30.5097H246.903V20.2856C247.581 19.2919 249.376 18.5202 250.726 18.5202C251.101 18.5144 251.481 18.5436 251.849 18.6138V14.6387C249.914 14.7147 248.108 15.6266 246.903 17.1406Z" fill="#08B7DD"/>
<path d="M260.857 14.6387C258.373 14.5978 255.964 15.4629 254.076 17.0763L255.613 19.8004C256.829 18.6313 258.454 17.9766 260.144 17.9707C262.201 17.9707 263.552 18.9996 263.552 20.5662V22.6531C262.523 21.4372 260.693 20.7591 258.636 20.7591C256.163 20.7591 253.24 22.1387 253.24 25.763C253.24 29.3873 256.163 30.8896 258.636 30.8896C260.483 30.9656 262.277 30.2408 263.552 28.9021V30.5038H267.632V20.5019C267.632 16.0475 264.388 14.6329 260.857 14.6329V14.6387ZM263.552 26.786C262.722 27.7096 261.518 28.2065 260.272 28.1363C258.665 28.1363 257.35 27.3004 257.35 25.8624C257.35 24.4243 258.665 23.5241 260.272 23.5241C261.512 23.4481 262.716 23.945 263.552 24.8686V26.7918V26.786Z" fill="#08B7DD"/>
<path d="M278.943 18.263C280.253 18.2104 281.492 18.8417 282.223 19.929L284.888 17.4271C283.86 16.0183 281.931 14.6387 278.75 14.6387C273.963 14.6387 270.526 18.0058 270.526 22.7525C270.526 27.4992 273.963 30.8955 278.75 30.8955C281.931 30.8955 283.86 29.5159 284.888 28.072L282.223 25.6052C281.475 26.6691 280.247 27.2946 278.943 27.2712C276.471 27.2712 274.735 25.4473 274.735 22.7525C274.735 20.0576 276.471 18.263 278.943 18.263Z" fill="#08B7DD"/>
<path d="M295.13 26.8211C294.721 27.1251 294.224 27.2829 293.715 27.2712C292.815 27.2712 292.301 26.5347 292.301 25.5701V18.5787H295.452V15.0187H292.301V10.7864H288.185V15.0187H285.613V18.5787H288.185V26.6574C288.185 29.4166 289.729 30.8897 292.587 30.8897C294.288 30.8897 295.381 30.4396 295.995 29.8959L295.13 26.8211Z" fill="#08B7DD"/>
<path d="M78.0513 16.1821C78.1156 16.1061 78.1448 16.0125 78.139 15.9132C78.139 15.843 78.1273 15.7787 78.0922 15.7144C78.0571 15.656 78.0045 15.6092 77.9461 15.58C77.8935 15.5507 77.835 15.5273 77.7707 15.5215C77.6889 15.5098 77.6129 15.504 77.531 15.5098H76.9991V16.9771H77.3498V16.4393H77.4901L77.9227 16.9771H78.3611L77.8292 16.3457C77.9168 16.3107 77.987 16.2522 78.0513 16.1821ZM77.7356 16.0476C77.7356 16.0476 77.7006 16.1002 77.6713 16.1178C77.6421 16.1411 77.607 16.1587 77.572 16.1587C77.5252 16.1704 77.4784 16.1762 77.4258 16.1762H77.344V15.7612H77.4492C77.4901 15.7612 77.531 15.7612 77.572 15.767C77.6012 15.767 77.6363 15.7787 77.6596 15.7963C77.6889 15.8079 77.7122 15.8313 77.7298 15.8606C77.7415 15.8898 77.7473 15.919 77.7473 15.9482C77.7473 15.9833 77.7415 16.0184 77.7298 16.0535L77.7356 16.0476ZM78.6008 15.2351C78.0279 14.6622 77.0985 14.668 76.5314 15.2409C75.9644 15.8138 75.9644 16.7432 76.5373 17.3103C77.1102 17.8773 78.0396 17.8773 78.6066 17.3044C78.8814 17.0297 79.0334 16.6614 79.0334 16.2756C79.0392 15.8839 78.8814 15.5098 78.6008 15.2351ZM78.3728 17.0881C78.1624 17.3103 77.8642 17.433 77.5603 17.433C77.2563 17.433 76.9582 17.3103 76.7477 17.0881C76.2976 16.638 76.2976 15.9132 76.7477 15.463C76.9582 15.2409 77.2563 15.1182 77.5603 15.1182C77.8642 15.1182 78.1624 15.2351 78.3728 15.4572C78.8229 15.9073 78.8229 16.638 78.3728 17.0881ZM64.9453 25.8742L61.5022 16.1061H55.3351L61.321 30.8664H68.365L74.3978 16.1061H68.3417L64.9453 25.8742ZM14.164 18.7074C14.164 18.7074 14.1348 18.6957 14.1231 18.6899C14.4563 18.5613 14.7778 18.4034 15.0818 18.2164C17.4493 16.6263 18.0806 13.4229 16.4906 11.0554C15.5436 9.64077 13.9594 8.7873 12.2525 8.76976H0V30.8664H10.3176C10.5163 30.8664 10.7034 30.8664 10.8963 30.8605H13.6905C17.0518 30.7378 19.2556 27.9845 19.2556 24.5998C19.2556 21.6536 16.894 19.3855 14.1582 18.7132L14.164 18.7074ZM6.02103 12.8383H8.98478C9.32383 12.8442 9.66288 12.8968 9.98439 12.9903C10.6391 13.2592 11.1418 13.8146 11.3406 14.4985C11.3815 14.668 11.4049 14.8376 11.4049 15.0129C11.4049 15.3987 11.3406 15.7787 11.212 16.1411C11.06 16.4627 10.832 16.7491 10.5514 16.9712C10.4462 17.0414 10.341 17.0998 10.2299 17.1524C9.86163 17.3337 9.45828 17.4389 9.04909 17.4681C8.66327 17.4856 8.48206 17.4973 7.52921 17.4973H6.02103V12.8442V12.8383ZM11.6913 26.2132C11.1301 26.5757 10.4696 26.7744 9.79733 26.7744H6.02688V21.2912H9.21861C9.44659 21.2912 9.6395 21.2912 9.75057 21.2912C10.2241 21.2912 10.6917 21.3613 11.1418 21.5075C11.2295 21.5367 11.3172 21.5718 11.4049 21.6068C12.7202 22.2732 13.2463 23.8808 12.5857 25.1961C12.3811 25.6053 12.0713 25.9502 11.6913 26.2074V26.2132ZM31.9699 16.1411L26.7673 22.776V8.75807H20.9216V30.8664H26.7673L29.2809 27.6805L31.6192 30.8664H38.2833L32.6656 23.3313L38.3008 16.1411H31.9699ZM53.4118 16.7199C52.2193 15.8489 49.3199 15.4221 46.7127 15.4221C45.6546 15.4338 44.6024 15.5274 43.556 15.6969C42.2934 15.8898 41.0541 16.2171 39.8616 16.6673L41.5393 20.046C42.6383 19.3796 43.8717 18.9646 45.1461 18.8185C45.9177 18.6957 46.7069 18.684 47.4785 18.7834C47.9578 18.8302 48.4196 18.9997 48.8171 19.2744C49.314 19.6485 49.5829 20.2565 49.5303 20.8761V20.9872C47.3206 20.9638 45.1168 21.2152 42.9715 21.7296C40.9898 22.3083 38.9204 24.0679 38.9204 26.3944C39.0023 29.0484 41.1827 31.1528 43.8366 31.1353C43.9068 31.1353 44.5556 31.147 44.5556 31.147C46.3093 31.0534 48.0163 30.5156 49.5011 29.5803L50.4773 30.8898H55.1948V20.6072C55.1948 18.8302 54.5985 17.5909 53.406 16.7199H53.4118ZM49.5069 26.8387C48.7762 27.587 47.7941 28.0488 46.7478 28.1248C46.6601 28.1248 46.5724 28.1248 46.4847 28.1072C46.4438 28.1072 46.4029 28.0955 46.3678 28.0955C46.3444 28.0955 46.3152 28.0838 46.2918 28.0838C45.2221 27.8734 44.5206 26.8387 44.731 25.769C44.883 24.9856 45.4968 24.3718 46.2801 24.214C46.2977 24.2082 46.3093 24.2082 46.3327 24.1965C47.1336 24.0211 49.5011 23.799 49.5011 23.799V26.8446L49.5069 26.8387Z" fill="#ED5A26"/>
<path d="M87.3049 9.0094H86.8548V30.6617H87.3049V9.0094Z" fill="white" stroke="black" stroke-width="0.35" stroke-miterlimit="10"/>
<path d="M222.889 40.3071V42.546H225.058V40.3071H226.373V46.1294H225.058V43.6918H222.889V46.1294H221.568V40.3071H222.889Z" fill="#5E5E5E"/>
<path d="M233.061 39.5472C233.172 39.7693 233.271 40.0674 233.271 40.4299C233.271 40.956 232.985 41.3652 232.365 41.3769C232.64 41.8153 232.85 42.4057 232.85 43.154C232.85 45.0596 231.693 46.2171 229.992 46.2171C228.291 46.2171 227.256 44.9135 227.256 43.2533C227.256 41.5113 228.373 40.2077 230.085 40.2077C230.524 40.2077 230.88 40.2954 231.149 40.3831C231.436 40.4883 231.769 40.6871 232.003 40.6871C232.219 40.6871 232.324 40.576 232.324 40.3422C232.324 40.1084 232.237 39.8921 232.131 39.7109L233.061 39.5472ZM231.453 43.2007C231.453 42.1543 230.95 41.26 230.044 41.26C229.138 41.26 228.636 42.1485 228.636 43.23C228.63 44.3289 229.162 45.1824 230.05 45.1824C230.939 45.1824 231.447 44.3348 231.447 43.2066L231.453 43.2007ZM229.448 47.4154C229.448 47.0764 229.717 46.8192 230.062 46.8192C230.383 46.8192 230.629 47.0764 230.629 47.4154C230.629 47.7253 230.378 48 230.062 48C229.717 48 229.448 47.7253 229.448 47.4154Z" fill="#5E5E5E"/>
<path d="M233.704 40.3832C234.107 40.313 234.68 40.2604 235.481 40.2604C236.282 40.2604 236.872 40.4182 237.258 40.7281C237.626 41.0203 237.878 41.5055 237.878 42.0726C237.878 42.6396 237.685 43.1248 237.34 43.4521C236.89 43.873 236.223 44.0659 235.452 44.0659C235.276 44.0659 235.124 44.0601 235.002 44.0426V46.1236H233.698V40.3832H233.704ZM235.007 43.0254C235.118 43.0488 235.259 43.0605 235.446 43.0605C236.147 43.0605 236.58 42.7039 236.58 42.1135C236.58 41.5757 236.212 41.26 235.551 41.26C235.282 41.26 235.101 41.2834 235.007 41.3126V43.0313V43.0254Z" fill="#5E5E5E"/>
<path d="M239.924 42.6454H240.537V40.3656C241.023 40.2896 241.654 40.237 242.314 40.237C243.413 40.237 244.138 40.4241 244.7 40.8508C245.302 41.3009 245.676 42.0433 245.676 43.0721C245.676 44.2004 245.278 44.9778 244.717 45.4572C244.103 45.9657 243.174 46.2171 242.034 46.2171C241.35 46.2171 240.871 46.1762 240.537 46.1294V43.6801H239.924V42.6513V42.6454ZM243.004 43.6743H241.847V45.1591C241.97 45.1766 242.151 45.1766 242.303 45.1766C243.513 45.1766 244.279 44.5394 244.279 43.1131C244.279 41.8504 243.577 41.2541 242.437 41.2541C242.151 41.2541 241.964 41.2775 241.841 41.3068V42.6454H242.998V43.6743H243.004Z" fill="#5E5E5E"/>
<path d="M251.866 43.154C251.866 45.0597 250.709 46.2171 249.008 46.2171C247.307 46.2171 246.272 44.9135 246.272 43.2534C246.272 41.5114 247.389 40.2078 249.101 40.2078C250.814 40.2078 251.866 41.5464 251.866 43.154ZM247.663 43.23C247.663 44.3699 248.201 45.1708 249.078 45.1708C249.955 45.1708 250.475 44.3231 250.475 43.1949C250.475 42.1485 249.972 41.2542 249.066 41.2542C248.16 41.2542 247.657 42.1018 247.657 43.23H247.663ZM249.563 38.9276L250.341 39.9915H249.493L249.113 39.4478H249.096L248.71 39.9915H247.874L248.651 38.9276H249.569H249.563ZM250.51 38.343L251.071 39.3192H250.387L249.376 38.343H250.51Z" fill="#5E5E5E"/>
<path d="M252.731 46.1236V40.3013H254.269L255.479 42.435C255.824 43.0488 256.169 43.7736 256.426 44.4283H256.449C256.362 43.6626 256.338 42.8734 256.338 42.0024V40.3013H257.548V46.1236H256.169L254.924 43.8788C254.579 43.2592 254.199 42.5051 253.912 41.827H253.889C253.924 42.6045 253.942 43.4229 253.942 44.3757V46.1294H252.731V46.1236Z" fill="#5E5E5E"/>
<path d="M263.546 45.8605C263.143 46.0008 262.371 46.1879 261.605 46.1879C260.541 46.1879 259.775 45.919 259.238 45.4046C258.7 44.9019 258.408 44.1419 258.419 43.2884C258.425 41.3535 259.834 40.2487 261.745 40.2487C262.5 40.2487 263.078 40.3948 263.359 40.5351L263.084 41.5874C262.763 41.4471 262.365 41.336 261.728 41.336C260.629 41.336 259.805 41.9556 259.805 43.2183C259.805 44.481 260.559 45.124 261.634 45.124C261.938 45.124 262.178 45.0889 262.283 45.0363V43.8204H261.383V42.7916H263.552V45.8547L263.546 45.8605Z" fill="#5E5E5E"/>
<path d="M265.773 42.6454H266.387V40.3656C266.872 40.2896 267.503 40.237 268.164 40.237C269.263 40.237 269.988 40.4241 270.549 40.8508C271.151 41.3009 271.525 42.0433 271.525 43.0721C271.525 44.2004 271.128 44.9778 270.567 45.4572C269.953 45.9657 269.023 46.2171 267.883 46.2171C267.199 46.2171 266.72 46.1762 266.387 46.1294V43.6801H265.773V42.6513V42.6454ZM268.854 43.6743H267.696V45.1591C267.819 45.1766 268 45.1766 268.152 45.1766C269.362 45.1766 270.128 44.5394 270.128 43.1131C270.128 41.8504 269.427 41.2541 268.287 41.2541C268 41.2541 267.813 41.2775 267.69 41.3068V42.6454H268.848V43.6743H268.854Z" fill="#5E5E5E"/>
<path d="M273.712 40.3071V46.1294H272.39V40.3071H273.712Z" fill="#5E5E5E"/>
<path d="M278.318 43.6626H276.178V45.0422H278.569V46.1236H274.857V40.3013H278.447V41.3828H276.178V42.5928H278.318V43.6626ZM277.178 38.9334L278.061 39.9974H277.137L276.699 39.4596H276.681L276.249 39.9974H275.331L276.196 38.9334H277.178ZM276.178 47.4097C276.178 47.0706 276.436 46.8134 276.781 46.8134C277.125 46.8134 277.359 47.0706 277.359 47.4097C277.359 47.7195 277.108 47.9942 276.781 47.9942C276.436 47.9942 276.178 47.7195 276.178 47.4097Z" fill="#5E5E5E"/>
<path d="M279.464 46.1236V40.3013H281.001L282.211 42.435C282.556 43.0488 282.901 43.7736 283.158 44.4283H283.182C283.094 43.6626 283.07 42.8734 283.07 42.0024V40.3013H284.28V46.1236H282.901L281.656 43.8788C281.311 43.2592 280.931 42.5051 280.645 41.827H280.621C280.656 42.6045 280.674 43.4229 280.674 44.3757V46.1294H279.464V46.1236Z" fill="#5E5E5E"/>
<path d="M287.946 41.412H286.385V40.3071H290.857V41.412H289.267V46.1236H287.946V41.412Z" fill="#5E5E5E"/>
<path d="M297.182 39.2432C297.293 39.4654 297.375 39.7518 297.375 40.0441C297.375 40.5702 297.083 40.9268 296.451 40.9853L296.305 41.0028V43.569C296.305 45.3637 295.399 46.2171 293.879 46.2171C292.359 46.2171 291.547 45.4046 291.547 43.5515V40.3072H292.868V43.6567C292.868 44.6563 293.248 45.1649 293.92 45.1649C294.592 45.1649 294.99 44.6797 294.99 43.6567V40.3072H295.989C296.346 40.3072 296.44 40.1961 296.44 39.9681C296.44 39.7869 296.381 39.5881 296.258 39.3894L297.182 39.2432ZM293.821 39.898C293.949 39.5063 294.242 39.442 294.242 39.1556C294.242 38.9977 294.13 38.8984 293.99 38.8984C293.826 38.8984 293.68 39.0737 293.599 39.1906L293.183 38.9393C293.382 38.5418 293.71 38.2553 294.236 38.2553C294.703 38.2553 295.072 38.5944 295.072 38.9919C295.072 39.5005 294.651 39.594 294.417 40.0266L293.815 39.898H293.821Z" fill="#5E5E5E"/>
</svg>
