<svg width="22" height="20" viewBox="0 0 22 20" fill="none" xmlns="http://www.w3.org/2000/svg">
    <path d="M20 10.0001L22 8.00014C18.27 4.27014 13.13 2.85014 8.3 3.69014L10.88 6.27014C14.18 6.25014 17.49 7.49014 20 10.0001ZM18 12.0001C16.92 10.9201 15.64 10.1501 14.28 9.67014L17.3 12.6901L18 12.0001ZM8 16.0001L11 19.0001L14 16.0001C12.35 14.3401 9.66 14.3401 8 16.0001ZM2.41 0.640137L1 2.05014L4.05 5.10014C2.59 5.83014 1.22 6.79014 0 8.00014L2 10.0001C3.23 8.77014 4.65 7.84014 6.17 7.22014L8.41 9.46014C6.79 9.89014 5.27 10.7401 4 12.0001L6 14.0001C7.35 12.6501 9.11 11.9601 10.89 11.9401L17.97 19.0201L19.38 17.6101L2.41 0.640137Z" fill="#F57C00"/>
</svg>
