<svg width="32" height="32" viewBox="0 0 32 32" fill="none" xmlns="http://www.w3.org/2000/svg">
    <circle cx="16" cy="16" r="16" fill="#D3F7FF"/>
    <path d="M14.5096 8.35173C14.5739 8.09854 14.8263 7.94947 15.0696 8.01572L23.576 10.3347C23.8216 10.4009 23.9662 10.6612 23.902 10.9121L21.2004 21.4491C21.1361 21.7023 20.8836 21.8514 20.6403 21.7851L12.134 19.4662C11.8884 19.3999 11.7438 19.1396 11.808 18.8888L14.5096 8.35173Z" fill="#FF0F0F"/>
    <path d="M8.1056 12.1618C8.04821 11.9062 8.202 11.653 8.44759 11.5939L17.0137 9.53045C17.2615 9.47129 17.5071 9.62983 17.5645 9.88303L19.7611 19.573C19.8185 19.8285 19.6647 20.0817 19.4191 20.1409L10.8531 22.2043C10.6052 22.2634 10.3596 22.1049 10.3022 21.8517L8.1056 12.1618Z" fill="#FFC700"/>
    <path d="M8.45906 12.876C8.20658 12.876 8 13.0889 8 13.3492V14.5608V15.7723V23.5266C8 23.7869 8.20658 23.9999 8.45906 23.9999H23.6103C23.8628 23.9999 24.0694 23.7869 24.0694 23.5266V15.034C24.0694 14.7737 23.8628 14.5608 23.6103 14.5608H15.462L14.9548 13.1812C14.8882 12.9967 14.716 12.876 14.5255 12.876H8.45906Z" fill="url(#paint0_linear_1783_3724)"/>
    <path d="M14.6196 18.9812C14.6058 18.1483 14.5347 17.5472 14.3809 17.1307C14.2271 16.6859 13.9172 16.357 13.4834 16.17C13.0771 15.9973 12.4873 15.9121 11.7 15.9121C10.8851 15.9121 10.2952 16.0423 9.90274 16.3144C9.49648 16.5841 9.22793 16.9864 9.10168 17.4881C8.98921 17.9471 8.93413 18.5931 8.93413 19.4237C8.93413 20.0271 8.97544 20.5287 9.0466 20.9144C9.13152 21.3309 9.27154 21.6598 9.49648 21.9177C9.70764 22.1757 10.0152 22.3768 10.4077 22.4904C10.7727 22.604 11.2639 22.6489 11.84 22.6489C12.4574 22.6489 12.9486 22.6063 13.3136 22.5188C13.7198 22.4336 14.0435 22.2183 14.2684 21.887C14.5071 21.5723 14.6196 21.099 14.6196 20.4672V20.2566H13.2585V20.6731C13.2585 21.1889 13.0611 21.2765 12.9922 21.3191C12.7673 21.4327 12.4023 21.4776 11.9387 21.4776H11.7C11.2363 21.4776 10.8989 21.4066 10.7176 21.2623C10.534 21.1179 10.4238 20.9334 10.3802 20.7038C10.3389 20.4601 10.309 20.1146 10.309 19.6721H14.6334V18.9836H14.6196V18.9812ZM10.2952 18.5221C10.309 18.1483 10.3503 17.8477 10.4215 17.6466C10.4926 17.4313 10.6189 17.2869 10.814 17.2017C11.0251 17.1024 11.3465 17.0574 11.7826 17.0574C12.2738 17.0574 12.6387 17.1 12.8499 17.2017C13.0312 17.2727 13.1437 17.4029 13.1873 17.604C13.2424 17.8051 13.2722 18.1199 13.286 18.5505H10.2952V18.5221Z" fill="white"/>
    <path d="M16.0771 16.5366H19.1688C19.2951 16.5366 19.3984 16.6431 19.3984 16.7732V17.2631C19.3984 17.3932 19.2951 17.4997 19.1688 17.4997H16.0771C15.9508 17.4997 15.8475 17.3932 15.8475 17.2631V16.7732C15.8475 16.6431 15.9508 16.5366 16.0771 16.5366Z" fill="white"/>
    <path d="M16.0771 18.9434H21.5514C21.6776 18.9434 21.7809 19.0498 21.7809 19.18V19.6698C21.7809 19.8 21.6776 19.9064 21.5514 19.9064H16.0771C15.9508 19.9064 15.8475 19.8 15.8475 19.6698V19.18C15.8475 19.0498 15.9508 18.9434 16.0771 18.9434Z" fill="white"/>
    <path d="M16.0771 21.3521H22.9056C23.0318 21.3521 23.1351 21.4585 23.1351 21.5887V22.0785C23.1351 22.2086 23.0318 22.3151 22.9056 22.3151H16.0771C15.9508 22.3151 15.8475 22.2086 15.8475 22.0785V21.5887C15.8475 21.4585 15.9508 21.3521 16.0771 21.3521Z" fill="white"/>
    <defs>
        <linearGradient id="paint0_linear_1783_3724" x1="8" y1="18.4384" x2="24.0688" y2="18.4384" gradientUnits="userSpaceOnUse">
            <stop stop-color="#05809B"/>
            <stop offset="1" stop-color="#06CCF7"/>
        </linearGradient>
    </defs>
</svg>

