<svg width="35" height="22" viewBox="0 0 35 22" fill="none" xmlns="http://www.w3.org/2000/svg">
    <path d="M0.853795 15.4542C0.284598 14.1261 0 12.7366 0 11.2857C0 9.83482 0.284598 8.45089 0.853795 7.13393C1.42299 5.8058 2.18192 4.66741 3.13058 3.71875C4.0904 2.75893 5.22879 1.99442 6.54576 1.42522C7.87388 0.856026 9.26339 0.571428 10.7143 0.571428H23.5714C25.0223 0.571428 26.4063 0.856026 27.7232 1.42522C29.0513 1.99442 30.1897 2.75893 31.1384 3.71875C32.0982 4.66741 32.8627 5.8058 33.4319 7.13393C34.0011 8.45089 34.2857 9.83482 34.2857 11.2857C34.2857 12.7366 34.0011 14.1261 33.4319 15.4542C32.8627 16.7712 32.0982 17.9096 31.1384 18.8694C30.1897 19.8181 29.0513 20.577 27.7232 21.1462C26.4063 21.7154 25.0223 22 23.5714 22H10.7143C9.26339 22 7.87388 21.7154 6.54576 21.1462C5.22879 20.577 4.0904 19.8181 3.13058 18.8694C2.18192 17.9096 1.42299 16.7712 0.853795 15.4542ZM20.24 19.1875C21.3002 19.6339 22.4107 19.8571 23.5714 19.8571C24.7321 19.8571 25.8371 19.6339 26.8862 19.1875C27.9464 18.7299 28.8616 18.1161 29.6317 17.346C30.4018 16.5759 31.01 15.6663 31.4565 14.6172C31.9141 13.5569 32.1429 12.4464 32.1429 11.2857C32.1429 10.125 31.9141 9.02009 31.4565 7.97098C31.01 6.91071 30.4018 5.99553 29.6317 5.22545C28.8616 4.45536 27.9464 3.8471 26.8862 3.40067C25.8371 2.94308 24.7321 2.71428 23.5714 2.71428C22.4107 2.71428 21.3002 2.94308 20.24 3.40067C19.1908 3.8471 18.2813 4.45536 17.5112 5.22545C16.7411 5.99553 16.1272 6.91071 15.6696 7.97098C15.2232 9.02009 15 10.125 15 11.2857C15 12.4464 15.2232 13.5569 15.6696 14.6172C16.1272 15.6663 16.7411 16.5759 17.5112 17.346C18.2813 18.1161 19.1908 18.7299 20.24 19.1875Z" fill="#08B7DD"/>
</svg>
