<svg width="32" height="32" viewBox="0 0 32 32" fill="none" xmlns="http://www.w3.org/2000/svg">
    <circle cx="16" cy="16" r="16" fill="#D3F7FF"/>
    <g clip-path="url(#clip0_0_1)">
        <path d="M14.4787 9.00802C14.5455 8.76313 14.7904 8.62212 15.0353 8.68149L23.5102 10.9227C23.7551 10.9895 23.8961 11.2344 23.8367 11.4793L22.7162 15.7093L12.6976 15.7687L14.4787 9.00802Z" fill="#FF0F0F"/>
        <path d="M8.10391 12.689C8.04455 12.4441 8.20039 12.1992 8.44529 12.1398L16.9722 10.1435C17.2171 10.0841 17.462 10.24 17.5214 10.4849L18.7458 15.7094L8.8015 15.6426L8.10391 12.689Z" fill="#FFC700"/>
        <path d="M8.46011 13.3791C8.20779 13.3791 8 13.5869 8 13.8392V15.0118V16.1843V23.6722C8 23.9246 8.20779 24.1323 8.46011 24.1323H23.5473C23.7996 24.1323 24.0074 23.9246 24.0074 23.6722V15.457C24.0074 15.2047 23.7996 14.9969 23.5473 14.9969H15.4286L14.9239 13.6611C14.8571 13.483 14.6865 13.3643 14.4935 13.3643H8.46011V13.3791Z" fill="white"/>
        <path d="M12.8312 17.5497C12.6234 17.4532 12.2598 17.4087 11.77 17.4087C11.3321 17.4087 11.013 17.4532 10.8052 17.5497C10.6123 17.6313 10.4861 17.7723 10.4119 17.9801C10.3377 18.1731 10.3006 18.4625 10.2857 18.8261V18.8558H13.2616C13.2468 18.4402 13.2171 18.136 13.1651 17.943C13.1206 17.7501 13.0093 17.6239 12.8312 17.5497Z" fill="url(#paint0_linear_0_1)"/>
        <path d="M23.5399 15.0042H15.4286L14.9239 13.6684C14.8571 13.4903 14.6865 13.3716 14.4935 13.3716H8.46011C8.20779 13.3716 8 13.5794 8 13.8317V15.0042V16.1768V23.6647C8 23.917 8.20779 24.1248 8.46011 24.1248H23.5473C23.7996 24.1248 24.0074 23.917 24.0074 23.6647V15.4569C24 15.212 23.7922 15.0042 23.5399 15.0042ZM14.6048 19.9393H10.3006C10.3006 20.3697 10.3302 20.7037 10.3748 20.9337C10.4193 21.1564 10.5306 21.3345 10.7087 21.4755C10.8868 21.6165 11.2282 21.6833 11.6883 21.6833H11.9258C12.3859 21.6833 12.7495 21.6387 12.9722 21.5274C13.039 21.4829 13.2393 21.4013 13.2393 20.904V20.5033H14.5974V20.7037C14.5974 21.3122 14.4861 21.7723 14.2486 22.0766C14.026 22.3957 13.6994 22.6035 13.2987 22.6851C12.9351 22.7668 12.4453 22.8113 11.8293 22.8113C11.2579 22.8113 10.7681 22.7668 10.4045 22.6554C10.0111 22.5441 9.70686 22.3512 9.49907 22.0989C9.27644 21.8465 9.13544 21.5348 9.0538 21.1267C8.97959 20.7556 8.94249 20.2733 8.94249 19.687C8.94249 18.8855 8.99443 18.2621 9.10575 17.8169C9.23191 17.3345 9.49907 16.9412 9.89981 16.6814C10.2931 16.4217 10.8794 16.2955 11.6883 16.2955C12.475 16.2955 13.0612 16.3771 13.462 16.5478C13.8924 16.7259 14.2041 17.0451 14.3525 17.4755C14.5083 17.8762 14.5751 18.4551 14.59 19.264H14.6048V19.9393ZM15.8145 17.1415C15.8145 17.0154 15.9184 16.9115 16.0445 16.9115H19.1243C19.2505 16.9115 19.3544 17.0154 19.3544 17.1415V17.6165C19.3544 17.7426 19.2505 17.8465 19.1243 17.8465H16.0445C15.9184 17.8465 15.8145 17.7426 15.8145 17.6165V17.1415V17.1415ZM15.8145 19.4643C15.8145 19.3382 15.9184 19.2343 16.0445 19.2343H21.4917C21.6178 19.2343 21.7217 19.3382 21.7217 19.4643V19.9393C21.7217 20.0655 21.6178 20.1694 21.4917 20.1694H16.0445C15.9184 20.1694 15.8145 20.0655 15.8145 19.9393V19.4643V19.4643ZM23.0724 22.2621C23.0724 22.3883 22.9685 22.4922 22.8423 22.4922H16.0445C15.9184 22.4922 15.8145 22.3883 15.8145 22.2621V21.7872C15.8145 21.661 15.9184 21.5571 16.0445 21.5571H22.8423C22.9685 21.5571 23.0724 21.661 23.0724 21.7872V22.2621Z" fill="url(#paint1_linear_0_1)"/>
    </g>
    <circle cx="16" cy="16" r="15.5" fill="#E3F8EA" stroke="#00C968"/>
    <path d="M14 18.8001L11.2 16.0001L10.2667 16.9334L14 20.6667L22 12.6667L21.0667 11.7334L14 18.8001Z" fill="#00C968"/>
    <defs>
        <linearGradient id="paint0_linear_0_1" x1="10.2851" y1="18.1349" x2="13.2628" y2="18.1349" gradientUnits="userSpaceOnUse">
            <stop stop-color="#05809B"/>
            <stop offset="1" stop-color="#06CCF7"/>
        </linearGradient>
        <linearGradient id="paint1_linear_0_1" x1="8" y1="18.7474" x2="23.9992" y2="18.7474" gradientUnits="userSpaceOnUse">
            <stop stop-color="#05809B"/>
            <stop offset="1" stop-color="#06CCF7"/>
        </linearGradient>
        <clipPath id="clip0_0_1">
            <rect width="16" height="16" fill="white" transform="translate(8 8)"/>
        </clipPath>
    </defs>
</svg>
