<svg width="32" height="32" viewBox="0 0 32 32" fill="none" xmlns="http://www.w3.org/2000/svg">
    <circle cx="16" cy="16" r="15.5" fill="#FFF3E0" stroke="#F57C00"/>
    <path fill-rule="evenodd" clip-rule="evenodd" d="M20 8H10C8.8955 8 8 8.8955 8 10V22C8 23.1045 8.8955 24 10 24H15.5V23H10C9.44925 23 9 22.5518 9 22V10C9 9.44825 9.44925 9 10 9H20C20.5518 9 21 9.44825 21 10V15.8789L22 14.8789V10C22 8.8955 21.1045 8 20 8Z" fill="#F57C00"/>
    <path d="M23.707 17L23 16.293C22.8046 16.0976 22.5489 16 22.293 16C22.0371 16 21.7813 16.0976 21.586 16.293L17.293 20.586C17.0976 20.7814 16.5002 21.5366 16.5 21.7925L16 24L18.207 23.5C18.207 23.5 19.2187 22.9024 19.414 22.707L23.707 18.414C24.0976 18.0235 24.0976 17.3901 23.707 17ZM19.0615 22.3525C19.0049 22.4062 18.809 22.5385 18.5697 22.6909L17.2744 21.3955C17.4072 21.2134 17.5551 21.0303 17.6465 20.9395L20.8789 17.7071L22.293 19.1213L19.0615 22.3525Z" fill="#F57C00"/>
    <path opacity="0.3" d="M19 12H11V11H19V12Z" fill="#F57C00"/>
    <path opacity="0.3" d="M19 14H11V13H19V14Z" fill="#F57C00"/>
    <path opacity="0.3" d="M19 16H11V15H19V16Z" fill="#F57C00"/>
    <path opacity="0.3" d="M15 18H11V17H15V18Z" fill="#F57C00"/>
</svg>
