<svg width="35" height="22" viewBox="0 0 35 22" fill="none" xmlns="http://www.w3.org/2000/svg">
    <path d="M34.1462 6.54576C34.7154 7.87388 35 9.26339 35 10.7143C35 12.1652 34.7154 13.5491 34.1462 14.8661C33.577 16.1942 32.8181 17.3326 31.8694 18.2812C30.9096 19.2411 29.7712 20.0056 28.4542 20.5748C27.1261 21.144 25.7366 21.4286 24.2857 21.4286L11.4286 21.4286C9.97768 21.4286 8.59375 21.144 7.27678 20.5748C5.94866 20.0056 4.81027 19.2411 3.86161 18.2812C2.90179 17.3326 2.13728 16.1942 1.56808 14.8661C0.998882 13.5491 0.714284 12.1652 0.714284 10.7143C0.714284 9.26339 0.998882 7.87388 1.56808 6.54576C2.13728 5.22879 2.90179 4.0904 3.86161 3.13058C4.81027 2.18192 5.94866 1.42299 7.27678 0.853795C8.59375 0.284598 9.97768 0 11.4286 0L24.2857 0C25.7366 0 27.1261 0.284598 28.4542 0.853795C29.7712 1.42299 30.9096 2.18192 31.8694 3.13058C32.8181 4.0904 33.577 5.22879 34.1462 6.54576ZM14.76 2.8125C13.6998 2.36607 12.5893 2.14286 11.4286 2.14286C10.2679 2.14286 9.16294 2.36607 8.11384 2.8125C7.05357 3.27009 6.13839 3.88393 5.3683 4.65402C4.59821 5.42411 3.98995 6.33371 3.54352 7.38281C3.08594 8.44308 2.85714 9.55357 2.85714 10.7143C2.85714 11.875 3.08594 12.9799 3.54352 14.029C3.98995 15.0893 4.59821 16.0045 5.3683 16.7746C6.13839 17.5446 7.05357 18.1529 8.11384 18.5993C9.16294 19.0569 10.2679 19.2857 11.4286 19.2857C12.5893 19.2857 13.6998 19.0569 14.76 18.5993C15.8092 18.1529 16.7187 17.5446 17.4888 16.7746C18.2589 16.0045 18.8728 15.0893 19.3304 14.029C19.7768 12.9799 20 11.875 20 10.7143C20 9.55357 19.7768 8.44308 19.3304 7.38281C18.8728 6.33371 18.2589 5.42411 17.4888 4.65402C16.7187 3.88393 15.8092 3.27009 14.76 2.8125Z" fill="#A8B1BD"/>
</svg>
