<svg width="24" height="24" viewBox="0 0 24 24" fill="none" xmlns="http://www.w3.org/2000/svg">
<path d="M20 7.01003L15 7.01004V9.00004L20 9.00003V20.02L4 20.02V9.00001L8.99999 9.00004V7.01004L4 7.01001C2.9 7.01001 2 7.91001 2 9.01001L2 20C2 21.1 2.9 22 4 22L20 22C21.1 22 22 21.1 22 20V9.01003C22 7.91003 21.1 7.01003 20 7.01003ZM20 7.01003L15 7.01004V9.00004L20 9.00003V20.02L4 20.02V9.00001L8.99999 9.00004V7.01004L4 7.01001C2.9 7.01001 2 7.91001 2 9.01001L2 20C2 21.1 2.9 22 4 22L20 22C21.1 22 22 21.1 22 20V9.01003C22 7.91003 21.1 7.01003 20 7.01003Z" fill="white"/>
<path d="M12 1L8 5L11 5L11 14L13 14L13 5L16 5L12 1ZM12 1L8 5L11 5L11 14L13 14L13 5L16 5L12 1Z" fill="white"/>
</svg>
