<svg width="28" height="28" viewBox="0 0 28 28" fill="none" xmlns="http://www.w3.org/2000/svg">
    <circle cx="14" cy="14" r="14" fill="#F4F4F4"/>
    <g clip-path="url(#clip0_3593_7185)">
        <path d="M13.9998 9.99996C14.7332 9.99996 15.3332 10.6 15.3332 11.3333C15.3332 12.0666 14.7332 12.6666 13.9998 12.6666C13.2665 12.6666 12.6665 12.0666 12.6665 11.3333C12.6665 10.6 13.2665 9.99996 13.9998 9.99996ZM13.9998 16C15.7998 16 17.8665 16.86 17.9998 17.3333V18H9.99984V17.34C10.1332 16.86 12.1998 16 13.9998 16V16ZM13.9998 8.66663C12.5265 8.66663 11.3332 9.85996 11.3332 11.3333C11.3332 12.8066 12.5265 14 13.9998 14C15.4732 14 16.6665 12.8066 16.6665 11.3333C16.6665 9.85996 15.4732 8.66663 13.9998 8.66663V8.66663ZM13.9998 14.6666C12.2198 14.6666 8.6665 15.56 8.6665 17.3333V19.3333H19.3332V17.3333C19.3332 15.56 15.7798 14.6666 13.9998 14.6666V14.6666Z" fill="#08B7DD"/>
    </g>
    <defs>
        <clipPath id="clip0_3593_7185">
            <rect width="16" height="16" fill="white" transform="translate(6 6)"/>
        </clipPath>
    </defs>
</svg>
