<svg width="48" height="48" viewBox="0 0 48 48" fill="none" xmlns="http://www.w3.org/2000/svg">
<path d="M46.7657 23.9998C46.7657 13.0279 36.6661 4.1377 24.2105 4.1377C11.7549 4.1377 1.65527 13.0279 1.65527 23.9998C1.65527 29.4236 4.12708 34.351 8.14376 37.9319C8.57826 38.5525 8.5493 39.135 8.01824 40.0136C7.23615 41.3218 6.04852 42.2098 4.78365 43.0215C4.64848 43.1075 4.50364 43.1838 4.38778 43.2889C4.18501 43.4608 4.31053 43.5467 4.48433 43.6231C6.94648 44.1006 9.3507 43.7759 11.7163 43.0597C12.5177 42.821 13.3191 42.5823 14.1302 42.3817C14.6805 42.2385 15.2309 42.2576 15.7909 42.4486C18.9386 43.5181 22.0573 43.986 25.1664 43.8427C31.2976 43.6231 36.8013 41.2454 40.7117 37.5499C40.7504 37.6454 40.7793 37.6454 40.7793 37.5213C40.7793 37.5117 40.7793 37.5022 40.7793 37.4926C44.4967 33.9403 46.7657 29.204 46.7657 23.9998Z" fill="url(#paint0_linear_2737_6909)"/>
<path d="M12.8071 26.6831C14.2651 26.6831 15.6361 26.6735 16.9976 26.6831C17.7604 26.6926 18.1755 27.0077 18.2528 27.6093C18.3397 28.3637 17.8955 28.8698 17.0652 28.8794C15.501 28.8985 13.9464 28.8889 12.3822 28.8889C11.9284 28.8889 11.4843 28.908 11.0305 28.8794C10.4705 28.8507 9.92009 28.7361 9.65939 28.1632C9.38904 27.5902 9.58215 27.0746 9.94906 26.6067C11.436 24.7351 12.9326 22.8539 14.4292 20.9823C14.5161 20.8677 14.603 20.7531 14.6899 20.6481C14.603 20.4857 14.4582 20.5621 14.3423 20.5621C13.2995 20.5526 12.2471 20.5621 11.2043 20.5526C10.9629 20.5526 10.7215 20.5335 10.4898 20.4762C10.007 20.352 9.70767 19.9701 9.70767 19.5117C9.70767 19.0534 9.98768 18.6618 10.4705 18.5282C10.7022 18.4613 10.9436 18.4422 11.185 18.4422C12.9036 18.4327 14.632 18.4327 16.3507 18.4422C16.6596 18.4422 16.9589 18.4518 17.2583 18.5473C17.9148 18.7669 18.1949 19.3685 17.9342 19.9987C17.7024 20.543 17.3355 21.0109 16.9686 21.4788C15.7037 23.064 14.4389 24.6491 13.174 26.2438C13.0581 26.3489 12.9616 26.473 12.8071 26.6831Z" fill="#FDFEFE"/>
<path d="M24.0078 21.6607C24.2395 21.3647 24.4809 21.0877 24.8768 21.0113C25.6396 20.8586 26.3541 21.3456 26.3637 22.1095C26.3927 24.0193 26.383 25.9291 26.3637 27.8389C26.3637 28.3641 26.0354 28.7556 25.5623 28.918C25.0602 29.0899 24.5485 28.9657 24.2106 28.5456C24.0464 28.345 23.9788 28.3068 23.7471 28.4883C22.8684 29.1949 21.8739 29.319 20.8022 28.9753C19.0835 28.4214 18.3786 27.0941 18.1855 25.4708C17.9828 23.7233 18.5717 22.2336 20.1456 21.3169C21.4684 20.553 22.8008 20.6198 24.0078 21.6607ZM20.5897 25.1461C20.5994 25.4708 20.7056 25.9196 20.9953 26.3015C21.6229 27.1323 22.9071 27.1323 23.525 26.3015C24.0657 25.5758 24.0657 24.3822 23.525 23.6564C23.2353 23.2745 22.8588 23.0739 22.376 23.0453C21.3236 22.988 20.5801 23.7997 20.5897 25.1461Z" fill="#FDFEFE"/>
<path d="M30.6989 25.2031C30.6217 22.749 32.2535 20.9156 34.5611 20.8488C37.0233 20.7724 38.8192 22.4053 38.8964 24.7925C38.9737 27.2084 37.4771 28.9177 35.1694 29.1469C32.659 29.3952 30.6603 27.5904 30.6989 25.2031ZM33.1224 24.974C33.1224 25.461 33.2383 25.9193 33.5376 26.3108C34.1459 27.1225 35.4205 27.1321 36.0384 26.3299C36.5984 25.6042 36.5984 24.3819 36.0481 23.6562C35.7584 23.2742 35.3722 23.0832 34.8991 23.0546C33.8563 22.9973 33.1321 23.7803 33.1224 24.974Z" fill="#FDFEFE"/>
<path d="M29.8492 23.303C29.8492 24.7831 29.8589 26.2633 29.8492 27.7434C29.8396 28.5932 29.0864 29.1662 28.2754 28.9561C27.7926 28.832 27.4257 28.3259 27.4257 27.7243C27.4257 25.1938 27.4257 22.6633 27.4257 20.1328C27.4257 19.6839 27.416 19.2447 27.4257 18.7959C27.4353 18.0606 27.9085 17.5831 28.623 17.5831C29.3568 17.5736 29.8492 18.0511 29.8492 18.815C29.8589 20.3142 29.8492 21.8134 29.8492 23.303Z" fill="#FDFEFE"/>
<defs>
<linearGradient id="paint0_linear_2737_6909" x1="9.93114" y1="41.7929" x2="33.1035" y2="4.13769" gradientUnits="userSpaceOnUse">
<stop stop-color="#0180C7"/>
<stop offset="1" stop-color="#12A1F1"/>
</linearGradient>
</defs>
</svg>
