<svg width="39" height="39" viewBox="0 0 39 39" fill="none" xmlns="http://www.w3.org/2000/svg">
<path opacity="0.15" d="M19.4999 3.7742C20.5421 3.7742 21.387 2.92932 21.387 1.8871C21.387 0.844884 20.5421 0 19.4999 0C18.4577 0 17.6128 0.844884 17.6128 1.8871C17.6128 2.92932 18.4577 3.7742 19.4999 3.7742Z" fill="#08B7DD"/>
<path opacity="0.7" d="M19.4999 38.9998C20.5421 38.9998 21.387 38.1549 21.387 37.1127C21.387 36.0705 20.5421 35.2256 19.4999 35.2256C18.4577 35.2256 17.6128 36.0705 17.6128 37.1127C17.6128 38.1549 18.4577 38.9998 19.4999 38.9998Z" fill="#08B7DD"/>
<path opacity="0.2" d="M10.6937 6.10159C11.736 6.10159 12.5808 5.25671 12.5808 4.21449C12.5808 3.17228 11.736 2.32739 10.6937 2.32739C9.65152 2.32739 8.80664 3.17228 8.80664 4.21449C8.80664 5.25671 9.65152 6.10159 10.6937 6.10159Z" fill="#08B7DD"/>
<path opacity="0.8" d="M29.9423 33.8423C30.4455 34.7229 30.131 35.8552 29.2503 36.4213C28.3697 36.9245 27.2374 36.61 26.6713 35.7294C26.1681 34.8487 26.4826 33.7165 27.3632 33.1503C28.2439 32.6471 29.4391 32.9616 29.9423 33.8423Z" fill="#08B7DD"/>
<path opacity="0.3" d="M5.15856 9.05819C6.03921 9.56142 6.35372 10.6937 5.8505 11.6372C5.34727 12.5179 4.21501 12.8324 3.27146 12.3292C2.39081 11.8259 2.07629 10.6937 2.57952 9.75013C3.08275 8.80658 4.27791 8.55497 5.15856 9.05819Z" fill="#08B7DD"/>
<path opacity="0.9" d="M35.7294 26.6711C36.61 27.1743 36.9245 28.3066 36.4213 29.2501C35.9181 30.1307 34.7858 30.4453 33.8423 29.942C32.9616 29.4388 32.6471 28.3066 33.1503 27.363C33.6536 26.4824 34.7858 26.1678 35.7294 26.6711Z" fill="#08B7DD"/>
<path opacity="0.4" d="M1.8871 21.3871C2.92932 21.3871 3.7742 20.5422 3.7742 19.5C3.7742 18.4578 2.92932 17.6129 1.8871 17.6129C0.844884 17.6129 0 18.4578 0 19.5C0 20.5422 0.844884 21.3871 1.8871 21.3871Z" fill="#08B7DD"/>
<path d="M37.1132 21.3871C38.1554 21.3871 39.0003 20.5422 39.0003 19.5C39.0003 18.4578 38.1554 17.6129 37.1132 17.6129C36.071 17.6129 35.2261 18.4578 35.2261 19.5C35.2261 20.5422 36.071 21.3871 37.1132 21.3871Z" fill="#08B7DD"/>
<path opacity="0.5" d="M3.27157 26.6711C4.15221 26.1678 5.28447 26.4824 5.85061 27.363C6.35383 28.2436 6.03932 29.3759 5.15867 29.942C4.27802 30.4453 3.14576 30.1307 2.57963 29.2501C2.0135 28.3695 2.39092 27.2372 3.27157 26.6711Z" fill="#08B7DD"/>
<path opacity="0.05" d="M33.8423 9.0584C34.7229 8.55517 35.8552 8.86969 36.4213 9.75034C36.9245 10.631 36.61 11.7632 35.7294 12.3294C34.8487 12.8326 33.7165 12.5181 33.1503 11.6374C32.6471 10.7568 32.9616 9.56163 33.8423 9.0584Z" fill="#F2994A"/>
<path opacity="0.6" d="M9.05804 33.8423C9.56127 32.9616 10.6935 32.6471 11.6371 33.1503C12.5177 33.6536 12.8323 34.7858 12.329 35.7294C11.8258 36.61 10.6935 36.9245 9.74998 36.4213C8.86933 35.8552 8.55481 34.7229 9.05804 33.8423Z" fill="#08B7DD"/>
<path opacity="0.1" d="M26.6713 3.27097C27.1745 2.39032 28.3068 2.0758 29.2503 2.57903C30.131 3.08226 30.4455 4.21452 29.9423 5.15807C29.4391 6.03872 28.3068 6.35323 27.3632 5.85001C26.4826 5.34678 26.1681 4.21452 26.6713 3.27097Z" fill="#08B7DD"/>
</svg>
