<svg width="48" height="48" viewBox="0 0 48 48" fill="none" xmlns="http://www.w3.org/2000/svg">
    <circle cx="24" cy="24" r="23.5" stroke="#08B7DD" stroke-dasharray="5 5"/>
    <g clip-path="url(#clip0_0_1)">
        <path d="M22.6667 17.3334H25.3334V20.0001H22.6667V17.3334ZM22.6667 22.6667H25.3334V30.6667H22.6667V22.6667ZM24.0001 10.6667C16.6401 10.6667 10.6667 16.6401 10.6667 24.0001C10.6667 31.3601 16.6401 37.3334 24.0001 37.3334C31.3601 37.3334 37.3334 31.3601 37.3334 24.0001C37.3334 16.6401 31.3601 10.6667 24.0001 10.6667ZM24.0001 34.6667C18.1201 34.6667 13.3334 29.8801 13.3334 24.0001C13.3334 18.1201 18.1201 13.3334 24.0001 13.3334C29.8801 13.3334 34.6667 18.1201 34.6667 24.0001C34.6667 29.8801 29.8801 34.6667 24.0001 34.6667Z" fill="#08B7DD"/>
    </g>
    <defs>
        <clipPath id="clip0_0_1">
            <rect width="32" height="32" fill="white" transform="translate(8 8)"/>
        </clipPath>
    </defs>
</svg>