<svg width="20" height="27" viewBox="0 0 20 27" fill="none" xmlns="http://www.w3.org/2000/svg">
    <path d="M17.43 17.98C17.47 17.66 17.5 17.34 17.5 17C17.5 16.66 17.47 16.34 17.43 16.02L19.54 14.37C19.73 14.22 19.78 13.95 19.66 13.73L17.66 10.27C17.57 10.11 17.4 10.02 17.22 10.02C17.16 10.02 17.1 10.03 17.05 10.05L14.56 11.05C14.04 10.65 13.48 10.32 12.87 10.07L12.49 7.42C12.46 7.18 12.25 7 12 7H8.00002C7.75002 7 7.54002 7.18 7.51002 7.42L7.13002 10.07C6.52002 10.32 5.96002 10.66 5.44002 11.05L2.95002 10.05C2.89002 10.03 2.83002 10.02 2.77002 10.02C2.60002 10.02 2.43002 10.11 2.34002 10.27L0.340022 13.73C0.210022 13.95 0.270023 14.22 0.460023 14.37L2.57002 16.02C2.53002 16.34 2.50002 16.67 2.50002 17C2.50002 17.33 2.53002 17.66 2.57002 17.98L0.460023 19.63C0.270023 19.78 0.220022 20.05 0.340022 20.27L2.34002 23.73C2.43002 23.89 2.60002 23.98 2.78002 23.98C2.84002 23.98 2.90002 23.97 2.95002 23.95L5.44002 22.95C5.96002 23.35 6.52002 23.68 7.13002 23.93L7.51002 26.58C7.54002 26.82 7.75002 27 8.00002 27H12C12.25 27 12.46 26.82 12.49 26.58L12.87 23.93C13.48 23.68 14.04 23.34 14.56 22.95L17.05 23.95C17.11 23.97 17.17 23.98 17.23 23.98C17.4 23.98 17.57 23.89 17.66 23.73L19.66 20.27C19.78 20.05 19.73 19.78 19.54 19.63L17.43 17.98ZM15.45 16.27C15.49 16.58 15.5 16.79 15.5 17C15.5 17.21 15.48 17.43 15.45 17.73L15.31 18.86L16.2 19.56L17.28 20.4L16.58 21.61L15.31 21.1L14.27 20.68L13.37 21.36C12.94 21.68 12.53 21.92 12.12 22.09L11.06 22.52L10.9 23.65L10.7 25H9.30002L9.11002 23.65L8.95002 22.52L7.89002 22.09C7.46002 21.91 7.06002 21.68 6.66002 21.38L5.75002 20.68L4.69002 21.11L3.42002 21.62L2.72002 20.41L3.80002 19.57L4.69002 18.87L4.55002 17.74C4.52002 17.43 4.50002 17.2 4.50002 17C4.50002 16.8 4.52002 16.57 4.55002 16.27L4.69002 15.14L3.80002 14.44L2.72002 13.6L3.42002 12.39L4.69002 12.9L5.73002 13.32L6.63002 12.64C7.06002 12.32 7.47002 12.08 7.88002 11.91L8.94002 11.48L9.10002 10.35L9.30002 9H10.69L10.88 10.35L11.04 11.48L12.1 11.91C12.53 12.09 12.93 12.32 13.33 12.62L14.24 13.32L15.3 12.89L16.57 12.38L17.27 13.59L16.2 14.44L15.31 15.14L15.45 16.27ZM10 13C7.79002 13 6.00002 14.79 6.00002 17C6.00002 19.21 7.79002 21 10 21C12.21 21 14 19.21 14 17C14 14.79 12.21 13 10 13ZM10 19C8.90002 19 8.00002 18.1 8.00002 17C8.00002 15.9 8.90002 15 10 15C11.1 15 12 15.9 12 17C12 18.1 11.1 19 10 19Z" fill="#08B7DD"/>
    <circle cx="10" cy="2" r="2" fill="#08B7DD"/>
</svg>
